<?xml version="1.0" encoding="UTF-8" standalone="no"?>
<!-- Created with Inkscape (http://www.inkscape.org/) -->

<svg
   xmlns:dc="http://purl.org/dc/elements/1.1/"
   xmlns:cc="http://creativecommons.org/ns#"
   xmlns:rdf="http://www.w3.org/1999/02/22-rdf-syntax-ns#"
   xmlns:svg="http://www.w3.org/2000/svg"
   xmlns="http://www.w3.org/2000/svg"
   version="1.0"
   width="60"
   height="60"
   id="svg1">
  <title
     id="title2982">check icon</title>
  <metadata
     id="metadata3">
    <rdf:RDF>
      <cc:Work
         rdf:about="">
        <dc:title>check icon</dc:title>
        <dc:description />
        <dc:subject>
          <rdf:Bag>
            <rdf:li>check icon</rdf:li>
          </rdf:Bag>
        </dc:subject>
        <dc:publisher>
          <cc:Agent
             rdf:about="http://www.openclipart.org">
            <dc:title>Dmitry Baranovskiy</dc:title>
          </cc:Agent>
        </dc:publisher>
        <dc:creator>
          <cc:Agent>
            <dc:title>Dmitry Baranovskiy</dc:title>
          </cc:Agent>
        </dc:creator>
        <dc:rights>
          <cc:Agent>
            <dc:title>Dmitry Baranovskiy</dc:title>
          </cc:Agent>
        </dc:rights>
        <dc:date />
        <dc:format>image/svg+xml</dc:format>
        <dc:type
           rdf:resource="http://purl.org/dc/dcmitype/StillImage" />
        <cc:license
           rdf:resource="http://raphaeljs.com/license.html" />
        <dc:language>en</dc:language>
        <dc:source>http://raphaeljs.com/icons/</dc:source>
      </cc:Work>
    </rdf:RDF>
  </metadata>
  <defs
     id="defs3" />
  <path
     d="m 54.103378,6.0858879 c -2.162,-1.718 -5.302,-1.358 -7.026,0.802 l -20.07,25.2440001 -7.016,-8.828 c -1.718,-2.162 -4.862,-2.52 -7.025999,-0.802 -2.162001,1.718 -2.522001,4.864 -0.802,7.026 l 10.929999,13.75 c 0.948,1.196 2.39,1.888 3.914,1.888 1.524,0 2.964,-0.698 3.914,-1.888 l 23.984,-30.166 c 1.72,-2.162 1.36,-5.3080001 -0.802,-7.0260001 z m -10.096,42.9140001 h -34 v -34 h 25.512 l 4.77,-6.0000001 H 7.0073789 c -1.658,0 -3,1.3420001 -3,3.0000001 v 40 c 0,1.656 1.342,3 3,3 H 47.007378 c 1.656,0 3,-1.344 3,-3 v -26.298 l -6,7.546 v 15.752 z"
     id="path701"
     style="font-size:12px;fill:#454545;fill-opacity:1;fill-rule:evenodd;stroke:none" />
</svg>
