<?xml version="1.0" encoding="UTF-8" standalone="no"?>
<!-- Created with Inkscape (http://www.inkscape.org/) -->

<svg
   xmlns:dc="http://purl.org/dc/elements/1.1/"
   xmlns:cc="http://creativecommons.org/ns#"
   xmlns:rdf="http://www.w3.org/1999/02/22-rdf-syntax-ns#"
   xmlns:svg="http://www.w3.org/2000/svg"
   xmlns="http://www.w3.org/2000/svg"
   version="1.0"
   width="60"
   height="60"
   id="svg1">
  <title
     id="title2982">Refresh icon</title>
  <metadata
     id="metadata3">
    <rdf:RDF>
      <cc:Work
         rdf:about="">
        <dc:title>Refresh icon</dc:title>
        <dc:description />
        <dc:subject>
          <rdf:Bag>
            <rdf:li>refresh</rdf:li>
          </rdf:Bag>
        </dc:subject>
        <dc:publisher>
          <cc:Agent
             rdf:about="http://www.openclipart.org">
            <dc:title>Dmitry Baranovskiy</dc:title>
          </cc:Agent>
        </dc:publisher>
        <dc:creator>
          <cc:Agent>
            <dc:title>Dmitry Baranovskiy</dc:title>
          </cc:Agent>
        </dc:creator>
        <dc:rights>
          <cc:Agent>
            <dc:title>Dmitry Baranovskiy</dc:title>
          </cc:Agent>
        </dc:rights>
        <dc:date />
        <dc:format>image/svg+xml</dc:format>
        <dc:type
           rdf:resource="http://purl.org/dc/dcmitype/StillImage" />
        <cc:license
           rdf:resource="http://raphaeljs.com/license.html" />
        <dc:language>en</dc:language>
        <dc:source>http://raphaeljs.com/icons/</dc:source>
      </cc:Work>
    </rdf:RDF>
  </metadata>
  <defs
     id="defs3" />
  <path
     d="m 37.775274,27.745366 c 4.238,-5.238 10.644,-13.54 10.298,-15.5 -0.256,-1.458 -1.764,-3.0940002 -3.526,-4.3420002 -1.766,-1.25 -3.832,-2.088 -5.29,-1.83 -1.96,0.346 -7.572,9.2060002 -11.042,14.9800002 -0.416,0.688 0.656,2.354 0.312,2.936 -0.344,0.584 -2.104,0.084 -2.36,0.522 -0.526,0.902 -0.834,1.444 -0.834,1.444 0,0 -1.106,1.646 2.326,4.326 l -10.466,14.946 c -0.534,0.762 -2.912,0.918 -2.912,0.918 l -2.368,6.624 1.718,1.204 5.416,-4.492 c 0,0 -0.668,-2.286 -0.136,-3.046 l 10.484,-14.978 c 3.438,2 4.754,0.672 4.754,0.672 0,0 0.402,-0.476 1.072,-1.278 0.322,-0.388 -0.748,-1.872 -0.318,-2.394 0.436,-0.524 2.364,-0.088 2.872,-0.712 z"
     id="path701"
     style="font-size:12px;fill:#454545;fill-opacity:1;fill-rule:evenodd;stroke:none" />
</svg>
