<?xml version="1.0" encoding="UTF-8" standalone="no"?>
<!-- Created with Inkscape (http://www.inkscape.org/) -->

<svg
   xmlns:dc="http://purl.org/dc/elements/1.1/"
   xmlns:cc="http://creativecommons.org/ns#"
   xmlns:rdf="http://www.w3.org/1999/02/22-rdf-syntax-ns#"
   xmlns:svg="http://www.w3.org/2000/svg"
   xmlns="http://www.w3.org/2000/svg"
   version="1.0"
   width="60"
   height="60"
   id="svg1">
  <title
     id="title2982">refresh icon</title>
  <metadata
     id="metadata3">
    <rdf:RDF>
      <cc:Work
         rdf:about="">
        <dc:title>refresh icon</dc:title>
        <dc:description />
        <dc:subject>
          <rdf:Bag>
            <rdf:li>refresh</rdf:li>
          </rdf:Bag>
        </dc:subject>
        <dc:publisher>
          <cc:Agent
             rdf:about="http://www.openclipart.org">
            <dc:title>Dmitry Baranovskiy</dc:title>
          </cc:Agent>
        </dc:publisher>
        <dc:creator>
          <cc:Agent>
            <dc:title>Dmitry Baranovskiy</dc:title>
          </cc:Agent>
        </dc:creator>
        <dc:rights>
          <cc:Agent>
            <dc:title>Dmitry Baranovskiy</dc:title>
          </cc:Agent>
        </dc:rights>
        <dc:date />
        <dc:format>image/svg+xml</dc:format>
        <dc:type
           rdf:resource="http://purl.org/dc/dcmitype/StillImage" />
        <cc:license
           rdf:resource="http://raphaeljs.com/license.html" />
        <dc:language>en</dc:language>
        <dc:source>http://raphaeljs.com/icons/</dc:source>
      </cc:Work>
    </rdf:RDF>
  </metadata>
  <defs
     id="defs3" />
  <path
     d="m 49.74205,30.0023 c -0.0207,10.8997 -8.8412,19.7202 -19.7409,19.7409 -10.9043,-0.0207 -19.7271,-8.8412 -19.7455,-19.7409 0.0184,-10.9043 8.8412,-19.7271 19.7455,-19.7455 4.3999,0 8.4295,1.4467 11.707,3.8778 l -4.0986,4.1009 19.3867,5.1888 -5.198,-19.3820999 -4.347,4.347 c -4.7656,-3.8571 -10.8491,-6.1824 -17.4501,-6.1824 C 14.65095,2.2137001 2.21255,14.6521 2.20795,30.0023 c 0.0046,15.3525 12.443,27.7909 27.7932,27.7909 15.3502,0 27.7909,-12.4384 27.7909,-27.7909 h -8.05 z"
     id="path701"
     style="font-size:12px;fill:#454545;fill-opacity:1;fill-rule:evenodd;stroke:none" />
</svg>
