<?xml version="1.0" encoding="UTF-8" standalone="no"?>
<!-- Created with Inkscape (http://www.inkscape.org/) -->

<svg
   xmlns:dc="http://purl.org/dc/elements/1.1/"
   xmlns:cc="http://creativecommons.org/ns#"
   xmlns:rdf="http://www.w3.org/1999/02/22-rdf-syntax-ns#"
   xmlns:svg="http://www.w3.org/2000/svg"
   xmlns="http://www.w3.org/2000/svg"
   version="1.0"
   width="60"
   height="60"
   id="svg1">
  <title
     id="title2983">Verify Icon</title>
  <metadata
     id="metadata3">
    <rdf:RDF>
      <cc:Work
         rdf:about="">
        <dc:title>Verify Icon</dc:title>
        <dc:description />
        <dc:subject>
          <rdf:Bag>
            <rdf:li>refresh</rdf:li>
          </rdf:Bag>
        </dc:subject>
        <dc:publisher>
          <cc:Agent>
            <dc:title>Dmitry Baranovskiy</dc:title>
          </cc:Agent>
        </dc:publisher>
        <dc:creator>
          <cc:Agent>
            <dc:title>Dmitry Baranovskiy</dc:title>
          </cc:Agent>
        </dc:creator>
        <dc:rights>
          <cc:Agent>
            <dc:title>Dmitry Baranovskiy</dc:title>
          </cc:Agent>
        </dc:rights>
        <dc:date />
        <dc:format>image/svg+xml</dc:format>
        <dc:type
           rdf:resource="http://purl.org/dc/dcmitype/StillImage" />
        <cc:license
           rdf:resource="http://raphaeljs.com/license.html" />
        <dc:language>en</dc:language>
        <dc:source>http://raphaeljs.com/icons/</dc:source>
      </cc:Work>
    </rdf:RDF>
  </metadata>
  <path
     d="m 30,14.571069 c -15.092,0 -26.9999999,15.428 -26.9999999,15.428 0,0 11.9079999,15.43 26.9999999,15.43 11.542,0 27,-15.43 27,-15.43 0,0 -15.458,-15.428 -27,-15.428 z m 0,25.042 c -5.298,0 -9.614,-4.314 -9.614,-9.614 0,-5.3 4.316,-9.614 9.614,-9.614 5.298,0 9.614,4.316 9.614,9.614 0,5.298 -4.316,9.614 -9.614,9.614 z m 0,-15.226 c -3.098,0 -5.612,2.512 -5.612,5.612 0,3.1 2.512,5.612 5.612,5.612 3.1,0 5.612,-2.512 5.612,-5.612 0,-3.098 -2.512,-5.612 -5.612,-5.612 z"
     id="path701"
     style="font-size:12px;fill:#454545;fill-opacity:1;fill-rule:evenodd;stroke:none" />
</svg>
